<svg width="29" height="32" viewBox="0 0 29 32" fill="none" xmlns="http://www.w3.org/2000/svg">
<g id="Group">
<path id="Vector (Stroke)" fill-rule="evenodd" clip-rule="evenodd" d="M14.4999 2.4615C13.9878 2.4615 13.4918 2.64022 13.0974 2.96681L13.0935 2.97003L3.46607 10.8761C3.46597 10.8762 3.46618 10.876 3.46607 10.8761C2.92732 11.319 2.60262 12.0016 2.60262 12.7313V27.1755C2.60262 28.5119 3.64896 29.5385 4.87212 29.5385H24.1276C25.3508 29.5385 26.3972 28.5119 26.3972 27.1755V12.7313C26.3972 12.0016 26.0728 11.3196 25.533 10.8769L15.9024 2.96682C15.508 2.64022 15.012 2.4615 14.4999 2.4615ZM11.5296 1.0692C12.3651 0.378125 13.4155 0 14.4999 0C15.5843 0 16.6347 0.378126 17.4702 1.06921C17.4709 1.06979 17.4716 1.07037 17.4723 1.07096L27.0939 8.97361C28.2144 9.89288 28.8587 11.2789 28.8587 12.7313V27.1755C28.8587 29.8102 26.7707 32 24.1276 32H4.87212C2.22909 32 0.141113 29.8102 0.141113 27.1755V12.7313C0.141113 11.2788 0.784797 9.8935 1.90326 8.97437L11.5275 1.07096C11.5282 1.07037 11.5289 1.06979 11.5296 1.0692Z" fill="#FEF6E4"/>
<path id="Vector (Stroke)_2" fill-rule="evenodd" clip-rule="evenodd" d="M13.6788 19.6925C13.1347 19.6925 12.613 19.9086 12.2283 20.2933C11.8436 20.6779 11.6275 21.1997 11.6275 21.7437V30.7692C11.6275 31.449 11.0765 32 10.3968 32C9.71704 32 9.16602 31.449 9.16602 30.7692V21.7437C9.16602 20.5469 9.64147 19.399 10.4878 18.5527C11.3341 17.7064 12.4819 17.231 13.6788 17.231H15.3198C16.5166 17.231 17.6645 17.7064 18.5108 18.5527C19.3571 19.399 19.8325 20.5469 19.8325 21.7437V30.7692C19.8325 31.449 19.2815 32 18.6018 32C17.9221 32 17.371 31.449 17.371 30.7692V21.7437C17.371 21.1997 17.1549 20.6779 16.7702 20.2933C16.3855 19.9086 15.8638 19.6925 15.3198 19.6925H13.6788Z" fill="#FEF6E4"/>
</g>
</svg>
