<svg width="16" height="16" viewBox="0 0 16 16" fill="none" xmlns="http://www.w3.org/2000/svg">
<path id="Vector" d="M1.08069 8H-0.000488281C-0.000342364 6.339 0.516766 4.71921 1.47909 3.36538C2.44142 2.01155 3.80125 0.990788 5.36993 0.444722C6.93861 -0.101345 8.63835 -0.145643 10.2333 0.317971C11.8283 0.781586 13.2395 1.73013 14.271 3.032V1.8373H15.3522V5.62141H11.5681V4.54024H13.9925C13.3846 3.48889 12.511 2.61583 11.4593 2.00859C10.4075 1.40135 9.21465 1.08128 8.00021 1.08047C4.18474 1.08047 1.08069 4.18453 1.08069 8ZM14.9197 8C14.9197 11.8155 11.8157 14.9195 8.00021 14.9195C6.78578 14.9187 5.5929 14.5986 4.54118 13.9914C3.48945 13.3842 2.61586 12.5111 2.00798 11.4598H4.43233V10.3786H0.648217V14.1627H1.72939V12.968C2.76093 14.2699 4.17209 15.2184 5.76708 15.682C7.36207 16.1456 9.06182 16.1013 10.6305 15.5553C12.1992 15.0092 13.559 13.9885 14.5213 12.6346C15.4837 11.2808 16.0008 9.66101 16.0009 8H14.9197Z" fill="#FF6E6C"/>
</svg>
